<?xml version="1.0" encoding="utf-8"?>
<!-- Generator: Adobe Illustrator 19.2.1, SVG Export Plug-In . SVG Version: 6.00 Build 0)  -->
<svg version="1.1" id="Layer_1" xmlns="http://www.w3.org/2000/svg" xmlns:xlink="http://www.w3.org/1999/xlink" x="0px" y="0px"
	 viewBox="0 0 150 150" style="enable-background:new 0 0 150 150;" xml:space="preserve">
<style type="text/css">
	.st0{fill:#7C634F;}
	.st1{fill:#D0D2D3;}
	.st2{fill:#6ECAF3;}
	.st3{fill:#CED0D1;}
	.st4{fill:#F6CC78;}
	.st5{fill:#BBBDBF;}
	.st6{fill:#58595B;}
	.st7{fill:#FFB4D3;}
	.st8{fill:#A6A8AB;}
	.st9{opacity:0.2;fill:#FFFFFF;}
	.st10{fill:#4F3E31;}
	.st11{fill:#EBEBEC;}
	.st12{fill:#E0E1E2;}
	.st13{fill:#D1D2D4;}
	.st14{fill:#534235;}
	.st15{fill:#4A3A2E;}
	.st16{fill:#F8C1D9;}
	.st17{fill:#FFFFFF;}
	.st18{fill:#E4E5E6;}
	.st19{fill:#836854;}
	.st20{fill:#745D4A;}
	.st21{fill:#F3A5C8;}
	.st22{fill:#66493C;}
	.st23{fill:#6F5043;}
	.st24{fill:#4C3C34;}
	.st25{fill:#F4F4F6;}
	.st26{fill:#F8F8F9;}
	.st27{fill:#EBEBEE;}
	.st28{fill:#DFDFE0;}
	.st29{fill:#86888A;}
	.st30{fill:#A54B94;}
	.st31{fill:#D4BC9B;}
	.st32{fill:#A55498;}
	.st33{fill:#D3A561;}
	.st34{fill:#C7B192;}
	.st35{fill:#DCC6A9;}
	.st36{fill:#D3AD72;}
	.st37{fill:#CAB4FF;}
	.st38{fill:#C6A9FF;}
	.st39{fill:#765C60;}
	.st40{fill:#864481;}
	.st41{fill:#AE8950;}
	.st42{fill:#AA8CE1;}
	.st43{fill:#846255;}
	.st44{fill:#6AAB98;}
	.st45{fill:#F5887A;}
	.st46{fill:#8C685B;}
	.st47{fill:#77584D;}
	.st48{fill:#F69788;}
	.st49{fill:#E07D70;}
	.st50{fill:#7CB0A7;}
	.st51{fill:#619E8D;}
	.st52{fill:#70524E;}
	.st53{fill:#A78AF2;}
	.st54{fill:#50DB7E;}
	.st55{fill:#FBC2F2;}
	.st56{fill:#ECF4F9;}
	.st57{fill:#987EE7;}
	.st58{fill:#FBB0F2;}
	.st59{fill:#AC92FF;}
	.st60{fill:#5C76AA;}
	.st61{fill:#00B8ED;}
	.st62{fill:#EFEFF0;}
	.st63{fill:#CDAA6F;}
	.st64{fill:#5E8664;}
	.st65{fill:#644F3B;}
	.st66{fill:#785E47;}
	.st67{fill:#5C4936;}
	.st68{fill:#6A533E;}
	.st69{fill:#80654D;}
	.st70{fill:#544835;}
	.st71{fill:#D8468E;}
	.st72{fill:#5AD83F;}
	.st73{fill:#47C93F;}
	.st74{fill:#1CB14B;}
	.st75{fill:#D1FF25;}
	.st76{fill:#FF86B5;}
	.st77{fill:#F086B5;}
	.st78{fill:#F0F1F1;}
	.st79{fill:#F580B5;}
	.st80{fill:#E5E6E7;}
	.st81{fill:#E67CAD;}
	.st82{fill:#D46CAD;}
	.st83{fill:#796F6C;}
	.st84{fill:#0E86FE;}
	.st85{fill:#C93131;}
	.st86{fill:#B83131;}
	.st87{fill:#E5E5E5;}
	.st88{fill:#0E7FFB;}
	.st89{fill:#DBDCDD;}
	.st90{fill:none;stroke:#8D382D;stroke-width:4;stroke-linecap:round;stroke-linejoin:round;stroke-miterlimit:10;}
	.st91{fill:none;stroke:#0E6CFE;stroke-width:4;stroke-linecap:round;stroke-linejoin:round;stroke-miterlimit:10;}
	.st92{fill:none;stroke:#BBBDBF;stroke-width:4;stroke-linecap:round;stroke-linejoin:round;stroke-miterlimit:10;}
	.st93{fill:none;stroke:#A6A8AB;stroke-width:4;stroke-linecap:round;stroke-linejoin:round;stroke-miterlimit:10;}
	.st94{fill:#701F2F;}
	.st95{fill:#1C3B71;}
	.st96{fill:#214181;}
	.st97{fill:#621221;}
	.st98{fill:#231F20;}
	.st99{fill:#31DCFF;}
	.st100{fill:#80192B;}
	.st101{fill:#80994A;}
	.st102{fill:#6B192B;}
	.st103{fill:#5E7031;}
	.st104{fill:#58192B;}
	.st105{fill:#68E674;}
	.st106{fill:#FD7C91;}
	.st107{fill:#27A5FF;}
	.st108{fill:#B081E3;}
	.st109{fill:#FFEB26;}
	.st110{fill:#FFF04D;}
	.st111{fill:#FFDE00;}
	.st112{fill:#FFD906;}
	.st113{fill:#EFBD55;}
	.st114{fill:#E2AD41;}
	.st115{fill:#D69E36;}
	.st116{fill:#CE9333;}
</style>
<g>
	<g id="XMLID_11_">
		<g>
			<path class="st113" d="M148,14v122c0,6.6-5.4,12-12,12H14c-6.6,0-12-5.4-12-12V14C2,7.4,7.4,2,14,2h122C142.6,2,148,7.4,148,14z
				 M134,129.85v-10.7c0-2.28-1.87-4.15-4.15-4.15h-10.7c-2.28,0-4.15,1.87-4.15,4.15v10.7c0,2.28,1.87,4.15,4.15,4.15h10.7
				C132.13,134,134,132.13,134,129.85z M134,96.85v-10.7c0-2.28-1.87-4.15-4.15-4.15h-10.7c-2.28,0-4.15,1.87-4.15,4.15v10.7
				c0,2.28,1.87,4.15,4.15,4.15h10.7C132.13,101,134,99.13,134,96.85z M134,63.85v-10.7c0-2.28-1.87-4.15-4.15-4.15h-10.7
				c-2.28,0-4.15,1.87-4.15,4.15v10.7c0,2.28,1.87,4.15,4.15,4.15h10.7C132.13,68,134,66.13,134,63.85z M134,30.85v-10.7
				c0-2.28-1.87-4.15-4.15-4.15h-10.7c-2.28,0-4.15,1.87-4.15,4.15v10.7c0,2.28,1.87,4.15,4.15,4.15h10.7
				C132.13,35,134,33.13,134,30.85z M101,129.85v-10.7c0-2.28-1.87-4.15-4.15-4.15h-10.7c-2.28,0-4.15,1.87-4.15,4.15v10.7
				c0,2.28,1.87,4.15,4.15,4.15h10.7C99.13,134,101,132.13,101,129.85z M101,96.85v-10.7c0-2.28-1.87-4.15-4.15-4.15h-10.7
				C83.87,82,82,83.87,82,86.15v10.7c0,2.28,1.87,4.15,4.15,4.15h10.7C99.13,101,101,99.13,101,96.85z M101,63.85v-10.7
				c0-2.28-1.87-4.15-4.15-4.15h-10.7C83.87,49,82,50.87,82,53.15v10.7c0,2.28,1.87,4.15,4.15,4.15h10.7
				C99.13,68,101,66.13,101,63.85z M101,30.85v-10.7c0-2.28-1.87-4.15-4.15-4.15h-10.7C83.87,16,82,17.87,82,20.15v10.7
				c0,2.28,1.87,4.15,4.15,4.15h10.7C99.13,35,101,33.13,101,30.85z M68,129.85v-10.7c0-2.28-1.87-4.15-4.15-4.15h-10.7
				c-2.28,0-4.15,1.87-4.15,4.15v10.7c0,2.28,1.87,4.15,4.15,4.15h10.7C66.13,134,68,132.13,68,129.85z M68,96.85v-10.7
				c0-2.28-1.87-4.15-4.15-4.15h-10.7C50.87,82,49,83.87,49,86.15v10.7c0,2.28,1.87,4.15,4.15,4.15h10.7
				C66.13,101,68,99.13,68,96.85z M68,63.85v-10.7c0-2.28-1.87-4.15-4.15-4.15h-10.7C50.87,49,49,50.87,49,53.15v10.7
				c0,2.28,1.87,4.15,4.15,4.15h10.7C66.13,68,68,66.13,68,63.85z M68,30.85v-10.7c0-2.28-1.87-4.15-4.15-4.15h-10.7
				C50.87,16,49,17.87,49,20.15v10.7c0,2.28,1.87,4.15,4.15,4.15h10.7C66.13,35,68,33.13,68,30.85z M35,129.85v-10.7
				c0-2.28-1.87-4.15-4.15-4.15h-10.7c-2.28,0-4.15,1.87-4.15,4.15v10.7c0,2.28,1.87,4.15,4.15,4.15h10.7
				C33.13,134,35,132.13,35,129.85z M35,96.85v-10.7c0-2.28-1.87-4.15-4.15-4.15h-10.7C17.87,82,16,83.87,16,86.15v10.7
				c0,2.28,1.87,4.15,4.15,4.15h10.7C33.13,101,35,99.13,35,96.85z M35,63.85v-10.7c0-2.28-1.87-4.15-4.15-4.15h-10.7
				C17.87,49,16,50.87,16,53.15v10.7c0,2.28,1.87,4.15,4.15,4.15h10.7C33.13,68,35,66.13,35,63.85z M35,30.85v-10.7
				c0-2.28-1.87-4.15-4.15-4.15h-10.7C17.87,16,16,17.87,16,20.15v10.7c0,2.28,1.87,4.15,4.15,4.15h10.7C33.13,35,35,33.13,35,30.85
				z"/>
			<path class="st114" d="M134,119.15v10.7c0,2.28-1.87,4.15-4.15,4.15h-10.7c-2.28,0-4.15-1.87-4.15-4.15v-10.7
				c0-2.28,1.87-4.15,4.15-4.15h10.7C132.13,115,134,116.87,134,119.15z"/>
			<path class="st114" d="M134,86.15v10.7c0,2.28-1.87,4.15-4.15,4.15h-10.7c-2.28,0-4.15-1.87-4.15-4.15v-10.7
				c0-2.28,1.87-4.15,4.15-4.15h10.7C132.13,82,134,83.87,134,86.15z"/>
			<path class="st114" d="M134,53.15v10.7c0,2.28-1.87,4.15-4.15,4.15h-10.7c-2.28,0-4.15-1.87-4.15-4.15v-10.7
				c0-2.28,1.87-4.15,4.15-4.15h10.7C132.13,49,134,50.87,134,53.15z"/>
			<path class="st114" d="M134,20.15v10.7c0,2.28-1.87,4.15-4.15,4.15h-10.7c-2.28,0-4.15-1.87-4.15-4.15v-10.7
				c0-2.28,1.87-4.15,4.15-4.15h10.7C132.13,16,134,17.87,134,20.15z"/>
			<path class="st114" d="M101,119.15v10.7c0,2.28-1.87,4.15-4.15,4.15h-10.7c-2.28,0-4.15-1.87-4.15-4.15v-10.7
				c0-2.28,1.87-4.15,4.15-4.15h10.7C99.13,115,101,116.87,101,119.15z"/>
			<path class="st114" d="M101,86.15v10.7c0,2.28-1.87,4.15-4.15,4.15h-10.7c-2.28,0-4.15-1.87-4.15-4.15v-10.7
				c0-2.28,1.87-4.15,4.15-4.15h10.7C99.13,82,101,83.87,101,86.15z"/>
			<path class="st114" d="M101,53.15v10.7c0,2.28-1.87,4.15-4.15,4.15h-10.7C83.87,68,82,66.13,82,63.85v-10.7
				c0-2.28,1.87-4.15,4.15-4.15h10.7C99.13,49,101,50.87,101,53.15z"/>
			<path class="st114" d="M101,20.15v10.7c0,2.28-1.87,4.15-4.15,4.15h-10.7C83.87,35,82,33.13,82,30.85v-10.7
				c0-2.28,1.87-4.15,4.15-4.15h10.7C99.13,16,101,17.87,101,20.15z"/>
			<path class="st114" d="M68,119.15v10.7c0,2.28-1.87,4.15-4.15,4.15h-10.7c-2.28,0-4.15-1.87-4.15-4.15v-10.7
				c0-2.28,1.87-4.15,4.15-4.15h10.7C66.13,115,68,116.87,68,119.15z"/>
			<path class="st114" d="M68,86.15v10.7c0,2.28-1.87,4.15-4.15,4.15h-10.7c-2.28,0-4.15-1.87-4.15-4.15v-10.7
				c0-2.28,1.87-4.15,4.15-4.15h10.7C66.13,82,68,83.87,68,86.15z"/>
			<path class="st114" d="M68,53.15v10.7c0,2.28-1.87,4.15-4.15,4.15h-10.7C50.87,68,49,66.13,49,63.85v-10.7
				c0-2.28,1.87-4.15,4.15-4.15h10.7C66.13,49,68,50.87,68,53.15z"/>
			<path class="st114" d="M68,20.15v10.7c0,2.28-1.87,4.15-4.15,4.15h-10.7C50.87,35,49,33.13,49,30.85v-10.7
				c0-2.28,1.87-4.15,4.15-4.15h10.7C66.13,16,68,17.87,68,20.15z"/>
			<path class="st114" d="M35,119.15v10.7c0,2.28-1.87,4.15-4.15,4.15h-10.7c-2.28,0-4.15-1.87-4.15-4.15v-10.7
				c0-2.28,1.87-4.15,4.15-4.15h10.7C33.13,115,35,116.87,35,119.15z"/>
			<path class="st114" d="M35,86.15v10.7c0,2.28-1.87,4.15-4.15,4.15h-10.7c-2.28,0-4.15-1.87-4.15-4.15v-10.7
				c0-2.28,1.87-4.15,4.15-4.15h10.7C33.13,82,35,83.87,35,86.15z"/>
			<path class="st114" d="M35,53.15v10.7c0,2.28-1.87,4.15-4.15,4.15h-10.7C17.87,68,16,66.13,16,63.85v-10.7
				c0-2.28,1.87-4.15,4.15-4.15h10.7C33.13,49,35,50.87,35,53.15z"/>
			<path class="st114" d="M35,20.15v10.7c0,2.28-1.87,4.15-4.15,4.15h-10.7C17.87,35,16,33.13,16,30.85v-10.7
				c0-2.28,1.87-4.15,4.15-4.15h10.7C33.13,16,35,17.87,35,20.15z"/>
			<path class="st115" d="M121,123.104c0-1.157,0.947-2.104,2.104-2.104H134v-1.85c0-2.28-1.87-4.15-4.15-4.15h-10.7
				c-2.28,0-4.15,1.87-4.15,4.15v10.7c0,2.28,1.87,4.15,4.15,4.15H121V123.104z"/>
			<path class="st115" d="M121,90.104c0-1.157,0.947-2.104,2.104-2.104H134v-1.85c0-2.28-1.87-4.15-4.15-4.15h-10.7
				c-2.28,0-4.15,1.87-4.15,4.15v10.7c0,2.28,1.87,4.15,4.15,4.15H121V90.104z"/>
			<path class="st115" d="M121,57.104c0-1.157,0.947-2.104,2.104-2.104H134v-1.85c0-2.28-1.87-4.15-4.15-4.15h-10.7
				c-2.28,0-4.15,1.87-4.15,4.15v10.7c0,2.28,1.87,4.15,4.15,4.15H121V57.104z"/>
			<path class="st115" d="M121,24.104c0-1.157,0.947-2.104,2.104-2.104H134v-1.85c0-2.28-1.87-4.15-4.15-4.15h-10.7
				c-2.28,0-4.15,1.87-4.15,4.15v10.7c0,2.28,1.87,4.15,4.15,4.15H121V24.104z"/>
			<path class="st115" d="M88,123.104c0-1.157,0.947-2.104,2.104-2.104H101v-1.85c0-2.28-1.87-4.15-4.15-4.15h-10.7
				c-2.28,0-4.15,1.87-4.15,4.15v10.7c0,2.28,1.87,4.15,4.15,4.15H88V123.104z"/>
			<path class="st115" d="M88,90.104C88,88.947,88.947,88,90.104,88H101v-1.85c0-2.28-1.87-4.15-4.15-4.15h-10.7
				C83.87,82,82,83.87,82,86.15v10.7c0,2.28,1.87,4.15,4.15,4.15H88V90.104z"/>
			<path class="st115" d="M88,57.104C88,55.947,88.947,55,90.104,55H101v-1.85c0-2.28-1.87-4.15-4.15-4.15h-10.7
				C83.87,49,82,50.87,82,53.15v10.7c0,2.28,1.87,4.15,4.15,4.15H88V57.104z"/>
			<path class="st115" d="M88,24.104C88,22.947,88.947,22,90.104,22H101v-1.85c0-2.28-1.87-4.15-4.15-4.15h-10.7
				C83.87,16,82,17.87,82,20.15v10.7c0,2.28,1.87,4.15,4.15,4.15H88V24.104z"/>
			<path class="st115" d="M55,123.104c0-1.157,0.947-2.104,2.104-2.104H68v-1.85c0-2.28-1.87-4.15-4.15-4.15h-10.7
				c-2.28,0-4.15,1.87-4.15,4.15v10.7c0,2.28,1.87,4.15,4.15,4.15H55V123.104z"/>
			<path class="st115" d="M55,90.104C55,88.947,55.947,88,57.104,88H68v-1.85c0-2.28-1.87-4.15-4.15-4.15h-10.7
				C50.87,82,49,83.87,49,86.15v10.7c0,2.28,1.87,4.15,4.15,4.15H55V90.104z"/>
			<path class="st115" d="M55,57.104C55,55.947,55.947,55,57.104,55H68v-1.85c0-2.28-1.87-4.15-4.15-4.15h-10.7
				C50.87,49,49,50.87,49,53.15v10.7c0,2.28,1.87,4.15,4.15,4.15H55V57.104z"/>
			<path class="st115" d="M55,24.104C55,22.947,55.947,22,57.104,22H68v-1.85c0-2.28-1.87-4.15-4.15-4.15h-10.7
				C50.87,16,49,17.87,49,20.15v10.7c0,2.28,1.87,4.15,4.15,4.15H55V24.104z"/>
			<path class="st115" d="M22,123.104c0-1.157,0.947-2.104,2.104-2.104H35v-1.85c0-2.28-1.87-4.15-4.15-4.15h-10.7
				c-2.28,0-4.15,1.87-4.15,4.15v10.7c0,2.28,1.87,4.15,4.15,4.15H22V123.104z"/>
			<path class="st115" d="M22,90.104C22,88.947,22.947,88,24.104,88H35v-1.85c0-2.28-1.87-4.15-4.15-4.15h-10.7
				C17.87,82,16,83.87,16,86.15v10.7c0,2.28,1.87,4.15,4.15,4.15H22V90.104z"/>
			<path class="st115" d="M22,57.104C22,55.947,22.947,55,24.104,55H35v-1.85c0-2.28-1.87-4.15-4.15-4.15h-10.7
				C17.87,49,16,50.87,16,53.15v10.7c0,2.28,1.87,4.15,4.15,4.15H22V57.104z"/>
			<path class="st115" d="M22,24.104C22,22.947,22.947,22,24.104,22H35v-1.85c0-2.28-1.87-4.15-4.15-4.15h-10.7
				C17.87,16,16,17.87,16,20.15v10.7c0,2.28,1.87,4.15,4.15,4.15H22V24.104z"/>
		</g>
	</g>
	<g>
		<path class="st116" d="M136,0H14C6.28,0,0,6.28,0,14v122c0,7.72,6.28,14,14,14h122c7.72,0,14-6.28,14-14V14
			C150,6.28,143.72,0,136,0z M146,136c0,5.514-4.486,10-10,10H14c-5.514,0-10-4.486-10-10V14C4,8.486,8.486,4,14,4h122
			c5.514,0,10,4.486,10,10V136z"/>
		<path class="st116" d="M129.85,14H119.15c-3.392,0-6.15,2.759-6.15,6.15v10.7c0,3.391,2.759,6.15,6.15,6.15h10.699
			c3.392,0,6.15-2.759,6.15-6.15v-10.7C136,16.759,133.241,14,129.85,14z M132,30.85c0,1.166-0.984,2.15-2.15,2.15H119.15
			c-1.166,0-2.15-0.984-2.15-2.15v-10.7c0-1.166,0.984-2.15,2.15-2.15h10.699c1.166,0,2.15,0.984,2.15,2.15V30.85z"/>
		<path class="st116" d="M96.85,14H86.15C82.759,14,80,16.759,80,20.15v10.7c0,3.391,2.759,6.15,6.15,6.15H96.85
			c3.392,0,6.15-2.759,6.15-6.15v-10.7C103,16.759,100.241,14,96.85,14z M99,30.85c0,1.166-0.984,2.15-2.15,2.15H86.15
			C84.984,33,84,32.016,84,30.85v-10.7c0-1.166,0.984-2.15,2.15-2.15H96.85c1.166,0,2.15,0.984,2.15,2.15V30.85z"/>
		<path class="st116" d="M63.85,14H53.15C49.759,14,47,16.759,47,20.15v10.7c0,3.391,2.759,6.15,6.15,6.15H63.85
			c3.392,0,6.15-2.759,6.15-6.15v-10.7C70,16.759,67.241,14,63.85,14z M66,30.85c0,1.166-0.984,2.15-2.15,2.15H53.15
			C51.984,33,51,32.016,51,30.85v-10.7c0-1.166,0.984-2.15,2.15-2.15H63.85c1.166,0,2.15,0.984,2.15,2.15V30.85z"/>
		<path class="st116" d="M30.85,14H20.15C16.759,14,14,16.759,14,20.15v10.7c0,3.391,2.759,6.15,6.15,6.15H30.85
			c3.392,0,6.15-2.759,6.15-6.15v-10.7C37,16.759,34.241,14,30.85,14z M33,30.85c0,1.166-0.984,2.15-2.15,2.15H20.15
			C18.984,33,18,32.016,18,30.85v-10.7c0-1.166,0.984-2.15,2.15-2.15H30.85c1.166,0,2.15,0.984,2.15,2.15V30.85z"/>
		<path class="st116" d="M129.85,47H119.15c-3.392,0-6.15,2.759-6.15,6.15v10.7c0,3.391,2.759,6.15,6.15,6.15h10.699
			c3.392,0,6.15-2.759,6.15-6.15v-10.7C136,49.759,133.241,47,129.85,47z M132,63.85c0,1.166-0.984,2.15-2.15,2.15H119.15
			c-1.166,0-2.15-0.984-2.15-2.15v-10.7c0-1.166,0.984-2.15,2.15-2.15h10.699c1.166,0,2.15,0.984,2.15,2.15V63.85z"/>
		<path class="st116" d="M96.85,47H86.15C82.759,47,80,49.759,80,53.15v10.7c0,3.391,2.759,6.15,6.15,6.15H96.85
			c3.392,0,6.15-2.759,6.15-6.15v-10.7C103,49.759,100.241,47,96.85,47z M99,63.85c0,1.166-0.984,2.15-2.15,2.15H86.15
			C84.984,66,84,65.016,84,63.85v-10.7c0-1.166,0.984-2.15,2.15-2.15H96.85c1.166,0,2.15,0.984,2.15,2.15V63.85z"/>
		<path class="st116" d="M63.85,47H53.15C49.759,47,47,49.759,47,53.15v10.7c0,3.391,2.759,6.15,6.15,6.15H63.85
			c3.392,0,6.15-2.759,6.15-6.15v-10.7C70,49.759,67.241,47,63.85,47z M66,63.85c0,1.166-0.984,2.15-2.15,2.15H53.15
			C51.984,66,51,65.016,51,63.85v-10.7c0-1.166,0.984-2.15,2.15-2.15H63.85c1.166,0,2.15,0.984,2.15,2.15V63.85z"/>
		<path class="st116" d="M30.85,47H20.15C16.759,47,14,49.759,14,53.15v10.7c0,3.391,2.759,6.15,6.15,6.15H30.85
			c3.392,0,6.15-2.759,6.15-6.15v-10.7C37,49.759,34.241,47,30.85,47z M33,63.85c0,1.166-0.984,2.15-2.15,2.15H20.15
			C18.984,66,18,65.016,18,63.85v-10.7c0-1.166,0.984-2.15,2.15-2.15H30.85c1.166,0,2.15,0.984,2.15,2.15V63.85z"/>
		<path class="st116" d="M129.85,80H119.15c-3.392,0-6.15,2.759-6.15,6.149v10.7c0,3.392,2.759,6.15,6.15,6.15h10.699
			c3.392,0,6.15-2.759,6.15-6.15v-10.7C136,82.759,133.241,80,129.85,80z M132,96.85c0,1.186-0.965,2.15-2.15,2.15H119.15
			c-1.186,0-2.15-0.965-2.15-2.15v-10.7c0-1.186,0.965-2.149,2.15-2.149h10.699c1.186,0,2.15,0.964,2.15,2.149V96.85z"/>
		<path class="st116" d="M96.85,80H86.15C82.759,80,80,82.759,80,86.15v10.7c0,3.392,2.759,6.15,6.15,6.15H96.85
			c3.392,0,6.15-2.759,6.15-6.15v-10.7C103,82.759,100.241,80,96.85,80z M99,96.85c0,1.186-0.965,2.15-2.15,2.15H86.15
			C84.965,99,84,98.036,84,96.85v-10.7C84,84.964,84.965,84,86.15,84H96.85C98.035,84,99,84.964,99,86.15V96.85z"/>
		<path class="st116" d="M63.85,80H53.15C49.759,80,47,82.759,47,86.15v10.7c0,3.392,2.759,6.15,6.15,6.15H63.85
			c3.392,0,6.15-2.759,6.15-6.15v-10.7C70,82.759,67.241,80,63.85,80z M66,96.85c0,1.186-0.965,2.15-2.15,2.15H53.15
			C51.965,99,51,98.036,51,96.85v-10.7C51,84.964,51.965,84,53.15,84H63.85C65.035,84,66,84.964,66,86.15V96.85z"/>
		<path class="st116" d="M30.85,80H20.15C16.759,80,14,82.759,14,86.15v10.7c0,3.392,2.759,6.15,6.15,6.15H30.85
			c3.392,0,6.15-2.759,6.15-6.15v-10.7C37,82.759,34.241,80,30.85,80z M33,96.85c0,1.186-0.965,2.15-2.15,2.15H20.15
			C18.965,99,18,98.036,18,96.85v-10.7C18,84.964,18.965,84,20.15,84H30.85C32.035,84,33,84.964,33,86.15V96.85z"/>
		<path class="st116" d="M129.85,113H119.15c-3.392,0-6.15,2.759-6.15,6.149v10.7c0,3.392,2.759,6.15,6.15,6.15h10.699
			c3.392,0,6.15-2.759,6.15-6.15v-10.7C136,115.759,133.241,113,129.85,113z M132,129.85c0,1.186-0.965,2.15-2.15,2.15H119.15
			c-1.186,0-2.15-0.965-2.15-2.15v-10.7c0-1.186,0.965-2.149,2.15-2.149h10.699c1.186,0,2.15,0.964,2.15,2.149V129.85z"/>
		<path class="st116" d="M96.85,113H86.15c-3.392,0-6.15,2.759-6.15,6.149v10.7c0,3.392,2.759,6.15,6.15,6.15H96.85
			c3.392,0,6.15-2.759,6.15-6.15v-10.7C103,115.759,100.241,113,96.85,113z M99,129.85c0,1.186-0.965,2.15-2.15,2.15H86.15
			c-1.186,0-2.15-0.965-2.15-2.15v-10.7c0-1.186,0.965-2.149,2.15-2.149H96.85c1.186,0,2.15,0.964,2.15,2.149V129.85z"/>
		<path class="st116" d="M63.85,113H53.15c-3.392,0-6.15,2.759-6.15,6.149v10.7c0,3.392,2.759,6.15,6.15,6.15H63.85
			c3.392,0,6.15-2.759,6.15-6.15v-10.7C70,115.759,67.241,113,63.85,113z M66,129.85c0,1.186-0.965,2.15-2.15,2.15H53.15
			c-1.186,0-2.15-0.965-2.15-2.15v-10.7c0-1.186,0.965-2.149,2.15-2.149H63.85c1.186,0,2.15,0.964,2.15,2.149V129.85z"/>
		<path class="st116" d="M30.85,113H20.15c-3.392,0-6.15,2.759-6.15,6.149v10.7c0,3.392,2.759,6.15,6.15,6.15H30.85
			c3.392,0,6.15-2.759,6.15-6.15v-10.7C37,115.759,34.241,113,30.85,113z M33,129.85c0,1.186-0.965,2.15-2.15,2.15H20.15
			c-1.186,0-2.15-0.965-2.15-2.15v-10.7c0-1.186,0.965-2.149,2.15-2.149H30.85c1.186,0,2.15,0.964,2.15,2.149V129.85z"/>
	</g>
</g>
</svg>
